<svg id="Capa_1" enable-background="new 0 0 512 512" height="512" viewBox="0 0 512 512" width="512" xmlns="http://www.w3.org/2000/svg"><g><g><g><g fill="#8f8b81"><path d="m404.883 36.178v-16.178c0-11.046-8.954-20-20-20h-257.766c-11.046 0-20 8.954-20 20v16.178z"/><path d="m107.117 476.355v15.645c0 11.046 8.954 20 20 20h257.767c11.046 0 20-8.954 20-20v-15.645z"/></g><g fill="#706c64"><path d="m404.88 36.178v-16.178c0-11.05-8.95-20-20-20h-36.94c4.953 11.813 9.418 23.881 13.372 36.178z"/><path d="m268.005 476.355c-11.187 12.526-23.054 24.431-35.555 35.645h152.43c11.05 0 20-8.95 20-20v-15.645z"/></g><path d="m107.12 30.58h297.76v450.84h-297.76z" fill="#f1eee0"/><path d="m404.88 30.58v146.14c-6.92-.75-13.36-3.14-18.93-6.75-6.83 4.43-14.96 7.01-23.69 7.01h-39.25c-8.73 0-16.86-2.58-23.69-7.01-6.83 4.43-14.96 7.01-23.69 7.01h-39.26c-8.73 0-16.86-2.58-23.69-7.01-6.83 4.43-14.96 7.01-23.69 7.01h-39.25c-8.73 0-16.86-2.58-23.69-7.01-5.57 3.61-12.01 6-18.93 6.75v-146.14z" fill="#e8e4d8"/><path d="m404.88 30.58v450.84h-141.47c74.23-80.63 119.55-188.28 119.55-306.52 0-50.46-8.25-98.99-23.49-144.32z" fill="#e8e4d8"/><g><path d="m124.919 443.14c-9.832 0-17.803-7.971-17.803-17.803v-176.296c0-9.832 7.971-17.803 17.803-17.803 9.832 0 17.803 7.971 17.803 17.803v176.296c0 9.832-7.97 17.803-17.803 17.803z" fill="#f9f8f2"/><path d="m142.722 350.069v-72.676c0-9.832-7.971-17.803-17.803-17.803-9.832 0-17.803 7.971-17.803 17.803v72.676c0 9.832 7.971 17.803 17.803 17.803 9.833 0 17.803-7.971 17.803-17.803z" fill="#fff"/></g></g><g><g><path d="m126.046 83.243h-86.636l67.71-52.663h59.552z" fill="#ffaf40"/><path d="m212.682 83.243h-86.636l40.626-52.663h59.552z" fill="#e01152"/><path d="m299.318 83.243h-86.636l13.542-52.663h59.552z" fill="#ffaf40"/><path d="m385.954 83.243h-86.636l-13.542-52.663h59.552z" fill="#e01152"/><path d="m472.59 83.243h-86.636l-40.626-52.663h59.552z" fill="#ffaf40"/></g><g><path d="m39.41 83.243v47.765c0 11.046 8.954 20 20 20h46.636c11.046 0 20-8.954 20-20v-47.765z" fill="#ffc751"/><path d="m126.046 83.243v47.765c0 11.046 8.954 20 20 20h46.636c11.046 0 20-8.954 20-20v-47.765z" fill="#fe255f"/><path d="m212.682 83.243v47.765c0 11.046 8.954 20 20 20h46.636c11.046 0 20-8.954 20-20v-47.765z" fill="#ffc751"/><path d="m299.318 83.243v47.765c0 11.046 8.954 20 20 20h46.636c11.046 0 20-8.954 20-20v-47.765z" fill="#fe255f"/><path d="m385.954 83.243v47.765c0 11.046 8.954 20 20 20h46.636c11.046 0 20-8.954 20-20v-47.765z" fill="#ffc751"/></g><path d="m75.65 102.25v-19.006h-36.24v19.006c0 9.615 7.795 17.41 17.41 17.41h1.42c9.615 0 17.41-7.795 17.41-17.41z" fill="#ffe059"/><path d="m160.87 102.25v-19.006h-34.82v19.006c0 9.615 7.795 17.41 17.41 17.41 9.615 0 17.41-7.795 17.41-17.41z" fill="#fc709b"/><path d="m247.51 102.25v-19.006h-34.83v19.006c0 9.615 7.795 17.41 17.41 17.41h.01c9.615 0 17.41-7.795 17.41-17.41z" fill="#ffe059"/><path d="m334.14 102.25v-19.006h-34.82v19.006c0 9.615 7.795 17.41 17.41 17.41 9.615 0 17.41-7.795 17.41-17.41z" fill="#fc709b"/><g><path d="m91.099 43.041-51.689 40.203h36.24l29.108-22.64c8.361-6.503 3.762-19.906-6.83-19.906-2.473 0-4.877.824-6.829 2.343z" fill="#ffc751"/><path d="m154.727 46.065-28.677 37.179h34.82l15.69-20.337c6.993-9.064.532-22.209-10.916-22.209-4.275 0-8.307 1.982-10.917 5.367z" fill="#fe255f"/><path d="m220.362 53.364-7.682 29.879h34.83l5.522-21.479c2.744-10.672-5.316-21.066-16.335-21.066-7.697 0-14.418 5.211-16.335 12.666z" fill="#ffc751"/><path d="m293.796 61.758 5.524 21.486h34.82l-7.683-29.883c-1.916-7.453-8.635-12.663-16.33-12.663-11.017 0-19.074 10.391-16.331 21.06z" fill="#fe255f"/><path d="m370.263 62.905 15.687 20.339h34.83l-28.685-37.18c-2.61-3.384-6.642-5.365-10.916-5.365-11.447-.001-17.908 13.142-10.916 22.206z" fill="#ffc751"/></g><path d="m420.78 102.25v-19.006h-34.83v19.006c0 9.615 7.795 17.41 17.41 17.41h.01c9.615 0 17.41-7.795 17.41-17.41z" fill="#ffe059"/></g></g><g><g><g><path d="m198.928 416.413h114.145c6.558 0 11.874-5.316 11.874-11.874 0-6.558-5.316-11.874-11.874-11.874h-114.145c-6.558 0-11.874 5.316-11.874 11.874-.001 6.558 5.316 11.874 11.874 11.874z" fill="#27b2ff"/><path d="m218.474 392.665h65.076c6.558 0 11.874 5.316 11.874 11.874 0 6.558-5.316 11.874-11.874 11.874h-65.076c-6.558 0-11.874-5.316-11.874-11.874 0-6.558 5.316-11.874 11.874-11.874z" fill="#5cceff"/><path d="m238.738 392.664h17.917c6.558 0 11.874 5.316 11.874 11.874 0 6.558-5.316 11.874-11.874 11.874h-17.917c-6.558 0-11.874-5.316-11.874-11.874-.001-6.557 5.316-11.874 11.874-11.874z" fill="#73e1ff"/></g><g><path d="m198.928 376.881h114.145c6.558 0 11.874-5.316 11.874-11.874 0-6.558-5.316-11.874-11.874-11.874h-114.145c-6.558 0-11.874 5.316-11.874 11.874-.001 6.558 5.316 11.874 11.874 11.874z" fill="#27b2ff"/><path d="m218.474 353.133h65.076c6.558 0 11.874 5.316 11.874 11.874 0 6.558-5.316 11.874-11.874 11.874h-65.076c-6.558 0-11.874-5.316-11.874-11.874 0-6.558 5.316-11.874 11.874-11.874z" fill="#5cceff"/><path d="m238.738 353.133h17.917c6.558 0 11.874 5.316 11.874 11.874 0 6.558-5.316 11.874-11.874 11.874h-17.917c-6.558 0-11.874-5.316-11.874-11.874-.001-6.558 5.316-11.874 11.874-11.874z" fill="#73e1ff"/></g></g><g><path d="m316.595 241.262c0-36.337-30.149-65.632-66.797-64.234-33.847 1.291-61.194 29.27-61.758 63.137-.477 28.575 17.7 52.96 43.151 61.811 4.866 1.692 8.89 5.2 11.365 9.719l3.654 6.672c2.641 4.822 9.566 4.822 12.207 0l3.651-6.666c2.455-4.483 6.42-8.015 11.251-9.685 25.184-8.704 43.276-32.61 43.276-60.754z" fill="#fe255f"/><path d="m316.595 241.263c0 28.146-18.097 52.044-43.28 60.747-4.827 1.679-8.789 5.209-11.246 9.691l-3.654 6.666c-2.642 4.827-9.567 4.827-12.209 0l-3.654-6.666c-2.469-4.53-6.493-8.036-11.357-9.727-16.616-5.777-30.133-18.171-37.379-34.034 10.369 6.962 22.85 11.011 36.28 11.011 36.083 0 65.327-29.244 65.327-65.327 0-8.37-1.58-16.369-4.444-23.726 15.568 11.739 25.616 30.379 25.616 51.365z" fill="#e01152"/><path d="m216.343 265.55c3.961-3.969 5.383-9.769 3.837-15.158-.888-3.096-1.337-6.357-1.28-9.709.222-13.64 9.086-25.619 21.265-30.498 5.829-2.335 9.62-8.016 9.62-14.295 0-10.918-11.032-18.414-21.167-14.353-23.404 9.379-40.137 32.215-40.58 58.627-.111 6.596.775 12.967 2.517 18.973 3.255 11.229 17.307 14.91 25.565 6.635z" fill="#fc709b"/></g></g></g></svg>